<?xml version="1.0" encoding="utf-8"?>
<!-- Generator: Adobe Illustrator 23.0.3, SVG Export Plug-In . SVG Version: 6.00 Build 0)  -->
<svg version="1.1" id="Layer_1" xmlns="http://www.w3.org/2000/svg" xmlns:xlink="http://www.w3.org/1999/xlink" x="0px" y="0px"
	 viewBox="0 0 60 60" style="enable-background:new 0 0 60 60;" xml:space="preserve">
<style type="text/css">
	.st0{fill:#333333;}
	.st1{clip-path:url(#SVGID_2_);}
	.st2{opacity:0.3;}
	.st3{fill:#676767;}
	.st4{opacity:0.3;clip-path:url(#SVGID_4_);}
	.st5{opacity:0.3;clip-path:url(#SVGID_6_);}
	.st6{fill:#FFFFFF;}
	.st7{fill:none;stroke:#FFFFFF;stroke-width:3;stroke-miterlimit:10;}
	.st8{fill:#FF3366;}
	.st9{fill-rule:evenodd;clip-rule:evenodd;fill:#FF3366;}
	.st10{fill:none;stroke:#FFFFFF;stroke-width:4;stroke-miterlimit:10;}
	.st11{fill-rule:evenodd;clip-rule:evenodd;fill:#666666;}
	.st12{fill-rule:evenodd;clip-rule:evenodd;fill:#FFFFFF;}
	.st13{fill:none;}
	.st14{fill:#666666;}
	.st15{opacity:0.4;fill-rule:evenodd;clip-rule:evenodd;fill:#FFFFFF;}
</style>
<g>
	<g>
		<path d="M54,60H6c-3.3,0-6-2.7-6-6V6c0-3.3,2.7-6,6-6h48c3.3,0,6,2.7,6,6v48C60,57.3,57.3,60,54,60z"/>
	</g>
	<g>
		<rect x="13" y="15" class="st6" width="34" height="7"/>
		<path class="st6" d="M43,29c1.4,0,2.8,0.3,4,0.8V26H13v7h21.5C36.5,30.6,39.6,29,43,29z"/>
		<path class="st6" d="M32.4,37H13v7h19.8c-0.5-1.2-0.8-2.6-0.8-4C32,39,32.2,38,32.4,37z"/>
		<path class="st6" d="M47,31.9c-1.2-0.6-2.6-0.9-4-0.9c-2.1,0-4.1,0.8-5.6,2c-1.3,1-2.3,2.4-2.8,4c-0.3,0.9-0.5,2-0.5,3
			c0,1.4,0.3,2.8,0.9,4c1.5,3,4.5,5,8.1,5c5,0,9-4,9-9C52,36.5,50,33.4,47,31.9z"/>
		<polygon class="st8" points="38,36 38.7,37 42,41.6 42,44 42,45 44,46 44,44 44,41.6 47,37.4 48,36 		"/>
	</g>
</g>
</svg>
